Coordinates
version=1
nRows=14
nColumns=24
inDegrees=yes

Units are S.I. units (second, meters, Newtons, ...)
Angles are in degrees.

endheader
time	pelvis_tilt	pelvis_list	pelvis_rotation	pelvis_tx	pelvis_ty	pelvis_tz	hip_flexion_r	hip_adduction_r	hip_rotation_r	knee_angle_r	ankle_angle_r	subtalar_angle_r	mtp_angle_r	hip_flexion_l	hip_adduction_l	hip_rotation_l	knee_angle_l	ankle_angle_l	subtalar_angle_l	mtp_angle_l	lumbar_extension	lumbar_bending	lumbar_rotation
      0.69016667	      2.24399408	      3.74635848	     -0.21632988	     -0.45257095	      1.02271278	      0.27324779	      7.83434017	      0.26638512	     -1.92195642	    -17.74790196	      7.62539164	     -8.75907526	      8.58362406	     13.16300243	      1.95817990	     -7.83722185	    -65.66433778	      0.04106499	    -16.57480291	      4.50141413	     -5.91622952	     -3.56432446	      3.56462027
      0.69433333	      2.22878690	      3.87968792	     -0.40353405	     -0.44742013	      1.02343910	      0.27352944	      7.40844272	      0.12327041	     -1.86671618	    -17.47731660	      7.78728819	     -8.51545829	      8.58693768	     13.68550982	      2.07021497	     -8.00652970	    -65.27996132	      0.24042158	    -16.74257024	      4.30116818	     -5.92824415	     -3.71240407	      4.03427723
      0.69850000	      2.18329607	      3.98107547	     -0.55155053	     -0.44223562	      1.02409407	      0.27378096	      6.98035487	      0.01796016	     -1.80753128	    -17.13844046	      7.87106743	     -8.40113230	      8.58940740	     14.23449231	      2.15092119	     -8.12498707	    -64.85176458	      0.48875492	    -16.81933833	      4.27598748	     -5.89047890	     -3.81853587	      4.09319357
      0.70266667	      2.18782174	      4.13453760	     -0.77957988	     -0.43709799	      1.02477508	      0.27406501	      6.55551402	     -0.15785782	     -1.75750267	    -16.89958336	      8.03397303	     -8.09158737	      8.59923902	     14.69687228	      2.27916243	     -8.32644488	    -64.32156469	      0.72614815	    -16.84419848	      4.12224335	     -5.92988606	     -3.98071194	      4.59947809
      0.70683333	      2.15542488	      4.25463661	     -0.97804253	     -0.43191631	      1.02537121	      0.27430685	      6.14476891	     -0.29713450	     -1.71179884	    -16.61132068	      8.11056084	     -7.88605120	      8.60664042	     15.18813043	      2.37266811	     -8.49496688	    -63.74405110	      0.97789608	    -16.82706946	      4.02755849	     -5.89862461	     -4.08770858	      4.82925289
      0.71100000	      2.13895174	      4.36074537	     -1.17008159	     -0.42674608	      1.02593639	      0.27453014	      5.71262419	     -0.42548237	     -1.67806133	    -16.31533575	      8.24562544	     -7.64635985	      8.61864110	     15.65188359	      2.45382389	     -8.64230680	    -63.11645092	      1.22177567	    -16.74196790	      3.92563074	     -5.89838525	     -4.18812735	      5.14936972
      0.71516667	      2.10141911	      4.47096264	     -1.36794598	     -0.42158442	      1.02643610	      0.27475267	      5.30466177	     -0.55880555	     -1.62978911	    -16.01353006	      8.33128385	     -7.42607243	      8.62858139	     16.12343612	      2.53793421	     -8.79431958	    -62.42879933	      1.45679770	    -16.63787022	      3.86226505	     -5.88564771	     -4.31181910	      5.38212101
      0.71933333	      2.08814142	      4.56858443	     -1.55687847	     -0.41639534	      1.02693152	      0.27494392	      4.86877639	     -0.68592774	     -1.61959859	    -15.71899309	      8.51233754	     -7.14968565	      8.64735051	     16.54933993	      2.60955743	     -8.93340539	    -61.68200141	      1.68565873	    -16.47386919	      3.76691841	     -5.88582921	     -4.39810669	      5.77074414
      0.72350000	      2.07223341	      4.66309829	     -1.75656499	     -0.41121409	      1.02738212	      0.27514111	      4.43677922	     -0.80972542	     -1.58908657	    -15.41827127	      8.62839673	     -6.91252846	      8.66497037	     16.95998423	      2.67547351	     -9.07863756	    -60.87630500	      1.90998813	    -16.28066539	      3.69075418	     -5.88350874	     -4.48622394	      6.05619374
      0.72766667	      2.03834163	      4.75585969	     -1.95398108	     -0.40602699	      1.02775919	      0.27531618	      4.02586873	     -0.93384747	     -1.55599846	    -15.11789901	      8.69340675	     -6.69567249	      8.67723615	     17.37289270	      2.74227305	     -9.21440345	    -60.01382210	      2.12170948	    -16.06693993	      3.65373458	     -5.85717980	     -4.56544591	      6.25900522
      0.73183333	      2.01734451	      4.83871046	     -2.15208830	     -0.40083809	      1.02811516	      0.27548183	      3.60030634	     -1.05095159	     -1.53445609	    -14.81644339	      8.80970412	     -6.45340726	      8.69239540	     17.75370459	      2.79641429	     -9.34997929	    -59.09957288	      2.33602616	    -15.79822176	      3.62040561	     -5.84975908	     -4.64031086	      6.54262831
      0.73600000	      2.01626263	      4.90856115	     -2.34113857	     -0.39565060	      1.02843657	      0.27563334	      3.14958997	     -1.15728900	     -1.52916057	    -14.51222340	      8.97982178	     -6.17395830	      8.71607114	     18.09862466	      2.84003634	     -9.46837824	    -58.14363468	      2.54951580	    -15.52432641	      3.57600798	     -5.87358822	     -4.69862595	      6.91132463
      0.74016667	      2.01023125	      4.97303083	     -2.53088173	     -0.39045123	      1.02872841	      0.27577141	      2.70082179	     -1.25859434	     -1.50897471	    -14.19807578	      9.08648459	     -5.94759547	      8.73749944	     18.42597359	      2.87848669	     -9.58529047	    -57.12569583	      2.73737204	    -15.22993410	      3.54504030	     -5.88385460	     -4.74971840	      7.18486224
      0.74433333	      1.97321287	      5.03384923	     -2.71737163	     -0.38525176	      1.02890966	      0.27590122	      2.29239462	     -1.35556483	     -1.48942460	    -13.89776737	      9.20069337	     -5.72048891	      8.75962373	     18.77179345	      2.91164531	     -9.69837368	    -56.06574244	      2.91775821	    -14.91656810	      3.52338294	     -5.85941101	     -4.79583750	      7.46043568
